<svg width="607" height="642" viewBox="0 0 607 642" fill="none" xmlns="http://www.w3.org/2000/svg">
<path d="M295.656 38.8059C417.435 38.8059 516.156 137.527 516.156 259.306V559.806H295.656C173.877 559.806 75.1558 461.085 75.1558 339.306V38.8059H295.656Z" fill="#252525" stroke="#FCFFFC" stroke-width="3"/>
<path d="M312.712 152.574C331.009 152.574 345.842 167.407 345.842 185.704C345.842 167.407 360.675 152.574 378.972 152.574C360.675 152.574 345.842 137.741 345.842 119.444C345.842 137.741 331.009 152.574 312.712 152.574Z" fill="#FCFFFC"/>
<path d="M257.496 103.669C282.328 103.669 302.458 123.799 302.458 148.63C302.458 123.799 322.588 103.669 347.42 103.669C322.588 103.669 302.458 83.5385 302.458 58.7068C302.458 83.5385 282.328 103.669 257.496 103.669Z" fill="#FCFFFC"/>
<path d="M225.944 152.574C244.241 152.574 259.074 167.407 259.074 185.704C259.074 167.407 273.906 152.574 292.204 152.574C273.906 152.574 259.074 137.741 259.074 119.444C259.074 137.741 244.241 152.574 225.944 152.574Z" fill="#FCFFFC"/>
<path d="M303.566 516.849C302.786 514.884 302.318 512.637 302.041 510.265C364.395 508.722 416.02 463.94 428.061 404.769C429.923 410.228 430.746 416.053 430.949 422.262C431.268 432 429.252 442.238 425.053 452.391C420.854 462.543 414.549 472.426 406.511 481.485C398.472 490.545 388.849 498.613 378.19 505.237C377.249 505.821 375.892 506.681 374.258 507.716L374.254 507.719L374.244 507.725L374.24 507.728C370.608 510.029 365.618 513.191 360.811 516.11C357.315 518.233 353.88 520.25 351.09 521.74C349.697 522.483 348.441 523.109 347.405 523.552C346.888 523.773 346.404 523.959 345.972 524.091C345.564 524.216 345.099 524.327 344.656 524.327H314.656C311.768 524.327 309.41 523.608 307.538 522.248C305.677 520.896 304.42 518.999 303.566 516.849Z" fill="#FCFFFC"/>
<path d="M426.372 344.6C427.315 342.989 428.058 341.194 428.596 339.24C429.806 334.84 429.953 329.707 429.091 324.159C428.228 318.606 426.366 312.701 423.628 306.779C420.89 300.855 417.32 295.009 413.124 289.57C408.929 284.131 404.181 279.194 399.146 275.041C394.113 270.89 388.875 267.59 383.723 265.345C378.575 263.103 373.573 261.942 369.01 261.995C366.828 262.021 364.763 262.324 362.848 262.906C393.827 280.159 417.135 309.525 426.372 344.6Z" fill="#FCFFFC"/>
<path fill-rule="evenodd" clip-rule="evenodd" d="M298.714 498.306C364.988 498.306 418.714 444.58 418.714 378.306C418.714 312.032 364.988 258.306 298.714 258.306C232.44 258.306 178.714 312.032 178.714 378.306C178.714 444.58 232.44 498.306 298.714 498.306ZM297.155 418.842C297.155 398.382 280.675 381.826 260.384 381.826C246.514 381.826 237.137 384.194 231.135 387.79C225.265 391.309 222.494 396.07 221.821 401.466C221.129 407.011 222.633 413.49 225.918 420.198C229.188 426.875 234.119 433.562 239.949 439.428C245.779 445.294 252.425 450.254 259.057 453.542C265.722 456.846 272.15 458.355 277.647 457.661C282.992 456.986 287.721 454.206 291.222 448.293C294.801 442.248 297.155 432.803 297.155 418.842ZM303.155 418.842C303.155 432.803 305.509 442.248 309.089 448.293C312.59 454.206 317.319 456.986 322.664 457.661C328.161 458.355 334.589 456.846 341.253 453.542C347.886 450.254 354.532 445.294 360.362 439.428C366.192 433.562 371.123 426.875 374.393 420.198C377.678 413.49 379.182 407.011 378.49 401.466C377.817 396.07 375.045 391.309 369.175 387.79C363.174 384.194 353.797 381.826 339.927 381.826C319.636 381.826 303.155 398.382 303.155 418.842ZM339.927 375.826C353.797 375.826 363.174 373.459 369.175 369.863C375.045 366.344 377.817 361.583 378.49 356.187C379.182 350.641 377.678 344.163 374.393 337.455C371.123 330.778 366.192 324.09 360.362 318.225C354.532 312.359 347.886 307.399 341.253 304.11C334.589 300.807 328.161 299.298 322.664 299.992C317.319 300.667 312.59 303.446 309.089 309.36C305.509 315.405 303.155 324.85 303.155 338.811C303.155 359.271 319.636 375.826 339.927 375.826ZM297.155 338.811C297.155 324.85 294.801 315.405 291.222 309.36C287.721 303.446 282.992 300.667 277.647 299.992C272.15 299.298 265.722 300.807 259.057 304.11C252.425 307.399 245.779 312.359 239.949 318.225C234.119 324.09 229.188 330.778 225.918 337.455C222.633 344.163 221.129 350.641 221.821 356.187C222.494 361.583 225.265 366.344 231.135 369.863C237.137 373.459 246.514 375.826 260.384 375.826C280.675 375.826 297.155 359.271 297.155 338.811Z" fill="#FCFFFC"/>
<path d="M152.682 357.954C153.618 358.812 154.888 359.535 156.673 360.228C160.184 361.593 163.912 362.403 167.555 363.321L167.862 360.82C175.634 302.094 222.014 255.551 280.662 247.53L285.132 246.996C298.463 234.842 304.059 218.683 305.284 202.899C306.046 193.068 305.106 183.433 303.301 175.087C302.485 171.313 301.492 167.803 300.4 164.658C300.664 168.071 300.829 171.664 300.799 175.346C300.723 184.68 299.396 194.586 295.265 203.593C291.539 211.72 285.541 219.098 276.198 224.656C266.872 230.203 254.287 233.893 237.439 234.787C204.074 236.556 182.377 241.07 168.975 251.861C155.7 262.55 150.237 279.698 150.237 307.796C150.237 318.156 150.005 326.427 149.819 333.04C149.752 335.451 149.69 337.642 149.648 339.633C149.49 347.189 149.63 351.684 150.626 354.659C151.103 356.082 151.767 357.114 152.682 357.954Z" fill="#FCFFFC"/>
<path d="M499.219 78.1562C499.219 79.3021 499.062 80.3229 498.75 81.2188C498.438 82.1146 497.979 82.8646 497.375 83.4688C496.708 84.1354 495.875 84.6458 494.875 85C493.875 85.3333 492.729 85.5 491.438 85.5C490.146 85.5 489 85.2708 488 84.8125C487 84.3542 486.156 83.7188 485.469 82.9062C484.781 82.1146 484.25 81.1667 483.875 80.0625C483.5 78.9583 483.312 77.75 483.312 76.4375V73.7188C483.312 72.4271 483.5 71.2292 483.875 70.125C484.25 69 484.781 68.0312 485.469 67.2188C486.156 66.4062 487 65.7708 488 65.3125C489 64.8542 490.146 64.625 491.438 64.625C492.75 64.625 493.906 64.8021 494.906 65.1562C495.927 65.5104 496.771 66.0312 497.438 66.7188C498.021 67.3438 498.469 68.0938 498.781 68.9688C499.094 69.8438 499.25 70.8438 499.25 71.9688H495.812C495.812 71.2604 495.729 70.6458 495.562 70.125C495.396 69.5833 495.146 69.1354 494.812 68.7812C494.458 68.4062 494 68.1354 493.438 67.9688C492.875 67.7812 492.208 67.6875 491.438 67.6875C490.646 67.6875 489.948 67.8438 489.344 68.1562C488.76 68.4688 488.271 68.8854 487.875 69.4062C487.479 69.9479 487.188 70.5938 487 71.3438C486.812 72.0729 486.719 72.8542 486.719 73.6875V76.4375C486.719 77.2917 486.812 78.0833 487 78.8125C487.188 79.5417 487.479 80.1771 487.875 80.7188C488.271 81.2604 488.76 81.6875 489.344 82C489.948 82.3125 490.646 82.4688 491.438 82.4688C492.208 82.4688 492.875 82.3854 493.438 82.2188C494 82.0312 494.448 81.75 494.781 81.375C495.115 81.0208 495.365 80.5833 495.531 80.0625C495.698 79.5208 495.781 78.8854 495.781 78.1562H499.219ZM477.812 75.0625C477.812 77.1042 478.167 79.0312 478.875 80.8438C479.583 82.6354 480.562 84.1979 481.812 85.5312C483.062 86.8854 484.531 87.9479 486.219 88.7188C487.927 89.4896 489.771 89.875 491.75 89.875C493.708 89.875 495.531 89.4896 497.219 88.7188C498.927 87.9271 500.406 86.8542 501.656 85.5C502.906 84.1667 503.885 82.6042 504.594 80.8125C505.302 79.0208 505.656 77.1042 505.656 75.0625C505.656 73.0417 505.302 71.1458 504.594 69.375C503.885 67.5833 502.906 66.0208 501.656 64.6875C500.406 63.3542 498.927 62.3125 497.219 61.5625C495.531 60.7917 493.708 60.4062 491.75 60.4062C489.771 60.4062 487.927 60.7917 486.219 61.5625C484.531 62.3125 483.062 63.3542 481.812 64.6875C480.562 66.0208 479.583 67.5833 478.875 69.375C478.167 71.1458 477.812 73.0417 477.812 75.0625ZM475.094 75.0625C475.115 72.5208 475.573 70.1771 476.469 68.0312C477.365 65.8646 478.573 64.0104 480.094 62.4688C481.594 60.9271 483.354 59.7292 485.375 58.875C487.396 58 489.521 57.5625 491.75 57.5625C494.104 57.5625 496.292 58.0208 498.312 58.9375C500.333 59.8542 502.094 61.0938 503.594 62.6562C505.073 64.2396 506.24 66.0938 507.094 68.2188C507.948 70.3438 508.375 72.625 508.375 75.0625C508.375 77.5 507.948 79.7917 507.094 81.9375C506.24 84.0625 505.073 85.9167 503.594 87.5C502.094 89.1042 500.333 90.3646 498.312 91.2812C496.292 92.1979 494.104 92.6562 491.75 92.6562C489.396 92.6562 487.198 92.1979 485.156 91.2812C483.135 90.3646 481.385 89.1042 479.906 87.5C478.406 85.9167 477.229 84.0625 476.375 81.9375C475.521 79.7917 475.094 77.5 475.094 75.0625Z" fill="#FCFFFC"/>
</svg>
