<svg width="69" height="19" viewBox="0 0 69 19" fill="none" xmlns="http://www.w3.org/2000/svg">
<path d="M62.5812 10.24C62.5812 10.6933 62.4079 11.08 62.0612 11.4C61.7412 11.72 61.3412 11.88 60.8612 11.88C60.4079 11.88 60.0212 11.72 59.7012 11.4C59.4079 11.08 59.2612 10.6933 59.2612 10.24V6.87999C59.2612 6.37333 59.1279 5.97333 58.8612 5.67999C58.5945 5.38666 58.2212 5.23999 57.7412 5.23999H53.7012C53.1945 5.23999 52.7812 5.09333 52.4612 4.79999C52.1412 4.50666 51.9812 4.11999 51.9812 3.63999C51.9812 3.13333 52.1412 2.74666 52.4612 2.47999C52.7812 2.18666 53.1945 2.03999 53.7012 2.03999H60.0612C60.7545 2.03999 61.3412 2.25333 61.8212 2.67999C62.3279 3.07999 62.5812 3.70666 62.5812 4.55999V10.24ZM68.5812 12.88C68.5812 13.3867 68.4212 13.8 68.1012 14.12C67.8079 14.44 67.4212 14.6 66.9412 14.6C66.4612 14.6 66.0479 14.44 65.7012 14.12C65.3545 13.8 65.1812 13.3867 65.1812 12.88V2.35999C65.1812 2.22666 65.2212 2.03999 65.3012 1.79999C65.4079 1.53333 65.5812 1.27999 65.8212 1.03999C66.0879 0.799993 66.4612 0.679993 66.9412 0.679993C67.4479 0.679993 67.8479 0.839993 68.1412 1.15999C68.4345 1.45333 68.5812 1.85333 68.5812 2.35999V12.88Z" fill="#869FEF"/>
<path d="M38.5875 4.75999C38.4542 4.75999 38.3608 4.79999 38.3075 4.88C38.2808 4.96 38.2675 5.02666 38.2675 5.08C38.2675 5.64 38.6408 6.14666 39.3875 6.59999C40.1342 7.02666 41.0542 7.61333 42.1475 8.35999C42.4408 8.57333 42.6275 8.91999 42.7075 9.39999C42.8142 9.87999 42.6808 10.3067 42.3075 10.68C42.0142 11.0267 41.6142 11.2133 41.1075 11.24C40.6275 11.24 40.2008 11.0667 39.8275 10.72L37.7475 8.96C37.3475 8.58666 37.0008 8.41333 36.7075 8.43999C36.4142 8.43999 36.0675 8.62666 35.6675 9L33.3875 10.88C32.9875 11.2267 32.5342 11.4 32.0275 11.4C31.5475 11.3733 31.1608 11.1867 30.8675 10.84C30.5208 10.4933 30.3608 10.08 30.3875 9.59999C30.4408 9.09333 30.6675 8.70666 31.0675 8.43999C32.3208 7.66666 33.2808 7.05333 33.9475 6.59999C34.6142 6.12 34.9608 5.61333 34.9875 5.08C34.9875 5.02666 34.9608 4.96 34.9075 4.88C34.8808 4.79999 34.7875 4.75999 34.6275 4.75999H32.5075C32.0275 4.75999 31.6408 4.62666 31.3475 4.35999C31.0542 4.06666 30.9075 3.67999 30.9075 3.2C30.9075 2.69333 31.0542 2.29333 31.3475 2C31.6408 1.70666 32.0275 1.55999 32.5075 1.55999H40.7075C41.1875 1.55999 41.5742 1.70666 41.8675 2C42.1875 2.29333 42.3475 2.69333 42.3475 3.2C42.3475 3.67999 42.1875 4.06666 41.8675 4.35999C41.5742 4.62666 41.1875 4.75999 40.7075 4.75999H38.5875ZM44.9075 2.43999C44.9075 1.90666 45.0675 1.49333 45.3875 1.19999C45.7075 0.906661 46.1208 0.759995 46.6275 0.759995C47.1342 0.759995 47.4942 0.879995 47.7075 1.11999C47.9475 1.35999 48.1075 1.61333 48.1875 1.87999C48.2675 2.11999 48.3075 2.30666 48.3075 2.43999V4.43999C48.3075 5.16 48.6408 5.52 49.3075 5.52H50.3475C50.9608 5.52 51.3875 5.68 51.6275 6C51.8675 6.32 51.9875 6.67999 51.9875 7.08C51.9875 7.53333 51.8408 7.92 51.5475 8.24C51.2542 8.53333 50.8542 8.67999 50.3475 8.67999H49.3075C48.6408 8.67999 48.3075 8.97333 48.3075 9.55999V13.04C48.3075 13.5467 48.1342 13.96 47.7875 14.28C47.4675 14.6 47.0808 14.76 46.6275 14.76C46.1208 14.76 45.7075 14.6 45.3875 14.28C45.0675 13.96 44.9075 13.5467 44.9075 13.04V2.43999Z" fill="#869FEF"/>
<path d="M23.08 13.44C23.08 14.1067 23.4266 14.44 24.12 14.44H26.92C27.48 14.44 27.8933 14.6133 28.16 14.96C28.4533 15.28 28.6 15.6267 28.6 16C28.6 16.4267 28.44 16.8 28.12 17.12C27.8266 17.44 27.4266 17.6 26.92 17.6H15.84C15.36 17.6 14.96 17.44 14.64 17.12C14.3466 16.8 14.2 16.4267 14.2 16C14.2 15.6267 14.3333 15.28 14.6 14.96C14.8666 14.6133 15.28 14.44 15.84 14.44H18.68C19.3733 14.44 19.72 14.12 19.72 13.48V12.68C19.72 12.0667 19.92 11.6267 20.32 11.36H18.6C17.8533 11.36 17.24 11.12 16.76 10.64C16.28 10.16 16.04 9.54666 16.04 8.8V4.08C16.04 3.30666 16.28 2.69333 16.76 2.24C17.24 1.78666 17.8533 1.56 18.6 1.56H25.04C25.52 1.56 25.92 1.70666 26.24 2C26.56 2.29333 26.72 2.69333 26.72 3.2C26.72 3.68 26.56 4.06666 26.24 4.36C25.92 4.62666 25.52 4.76 25.04 4.76H20.84C20.36 4.76 20 4.89333 19.76 5.16C19.5466 5.42666 19.44 5.74666 19.44 6.12V6.6C19.44 7.61333 19.88 8.12 20.76 8.12H25.2C25.68 8.12 26.08 8.26666 26.4 8.56C26.72 8.82666 26.88 9.21333 26.88 9.72C26.88 10.2 26.72 10.5867 26.4 10.88C26.08 11.1467 25.68 11.3067 25.2 11.36H22.44C22.8666 11.68 23.08 12.12 23.08 12.68V13.44Z" fill="#869FEF"/>
<path d="M2.60005 18.4C2.12005 18.4 1.69338 18.24 1.32005 17.92C0.973382 17.5733 0.800049 17.1733 0.800049 16.72V4.4C0.800049 3.62667 1.04005 3 1.52005 2.52C2.00005 2.04 2.62672 1.8 3.40005 1.8H7.44005C9.04005 1.8 10.36 2.25334 11.4 3.16C12.4667 4.06667 13 5.26667 13 6.76C13 8.38667 12.48 9.70667 11.44 10.72C10.4 11.7333 9.08005 12.24 7.48005 12.24H5.12005C4.58672 12.24 4.32005 12.5067 4.32005 13.04L4.40005 16.72C4.40005 17.1733 4.21338 17.5733 3.84005 17.92C3.49338 18.24 3.08005 18.4 2.60005 18.4ZM4.92005 9.04H7.04005C8.69338 9.04 9.52005 8.36 9.52005 7C9.52005 5.66667 8.74672 5 7.20005 5H4.92005C4.52005 5 4.32005 5.2 4.32005 5.6V8.44C4.32005 8.84 4.52005 9.04 4.92005 9.04Z" fill="white"/>
</svg>
